<?xml version="1.0" encoding="UTF-8" standalone="no"?>
<svg
   width="16"
   height="16"
   version="1.1"
   id="svg1"
   sodipodi:docname="icon.svg"
   inkscape:version="1.4 (86a8ad7, 2024-10-11)"
   xmlns:inkscape="http://www.inkscape.org/namespaces/inkscape"
   xmlns:sodipodi="http://sodipodi.sourceforge.net/DTD/sodipodi-0.dtd"
   xmlns="http://www.w3.org/2000/svg"
   xmlns:svg="http://www.w3.org/2000/svg">
  <defs
     id="defs1" />
  <sodipodi:namedview
     id="namedview1"
     pagecolor="#ffffff"
     bordercolor="#111111"
     borderopacity="1"
     inkscape:showpageshadow="0"
     inkscape:pageopacity="0"
     inkscape:pagecheckerboard="1"
     inkscape:deskcolor="#d1d1d1"
     inkscape:zoom="32"
     inkscape:cx="7.078125"
     inkscape:cy="6.953125"
     inkscape:window-width="1920"
     inkscape:window-height="991"
     inkscape:window-x="-9"
     inkscape:window-y="-9"
     inkscape:window-maximized="1"
     inkscape:current-layer="svg1"
     showgrid="true">
    <inkscape:grid
       id="grid1"
       units="px"
       originx="0"
       originy="0"
       spacingx="1"
       spacingy="1"
       empcolor="#0099e5"
       empopacity="0.30196078"
       color="#0099e5"
       opacity="0.14901961"
       empspacing="4"
       enabled="true"
       visible="true" />
  </sodipodi:namedview>
  <rect
     style="fill:#e0e0e0;fill-opacity:1;stroke:#ffffff;stroke-width:0;stroke-linecap:round"
     id="rect39"
     width="4"
     height="1"
     x="6"
     y="6.5" />
  <rect
     style="fill:#e0e0e0;fill-opacity:1;stroke:#ffffff;stroke-width:0;stroke-linecap:round"
     id="rect40"
     width="4"
     height="1"
     x="6"
     y="8.5" />
  <path
     d="M 8,1 V 4.0742187 C 10.168003,4.0745706 11.925429,5.8319967 11.925781,8 H 15 V 7 L 13.517578,6.3789062 C 13.517578,6.3789062 13.343346,5.528919 13,5 L 14,3 13,2 11,3 C 10.507519,2.6712785 9.765625,2.5449219 9.765625,2.5449219 L 9,1 Z"
     style="fill:#e0e0e0;stroke:#ffffff;stroke-width:0;stroke-linecap:round;fill-opacity:1"
     id="path39"
     sodipodi:nodetypes="ccccccccccccc" />
  <path
     d="M 15,8 H 11.925781 C 11.925429,10.168003 10.168003,11.925429 8,11.925781 V 15 h 1 l 0.621094,-1.482422 c 0,0 0.849987,-0.174232 1.378906,-0.517578 l 2,1 1,-1 -1,-2 c 0.328722,-0.492481 0.455078,-1.234375 0.455078,-1.234375 L 15,9 Z"
     style="fill:#e0e0e0;stroke:#ffffff;stroke-width:0;stroke-linecap:round;fill-opacity:1"
     id="path2"
     sodipodi:nodetypes="ccccccccccccc" />
  <path
     d="M 8.074219,15 V 11.925781 C 5.906216,11.925429 4.14879,10.168003 4.148438,8 H 1.074219 v 1 l 1.482422,0.6210938 c 0,0 0.174232,0.8499872 0.517578,1.3789062 l -1,2 1,1 2,-1 c 0.492481,0.328722 1.234375,0.455078 1.234375,0.455078 L 7.074219,15 Z"
     style="fill:#e0e0e0;stroke:#ffffff;stroke-width:0;stroke-linecap:round;fill-opacity:1"
     id="path3"
     sodipodi:nodetypes="ccccccccccccc" />
  <path
     d="M 1.074219,8 H 4.148438 C 4.14879,5.831997 5.906216,4.074571 8.074219,4.074219 V 1 h -1 L 6.453125,2.482422 c 0,0 -0.849987,0.174232 -1.378906,0.517578 l -2,-1 -1,1 1,2 C 2.745497,5.492481 2.619141,6.234375 2.619141,6.234375 L 1.074219,7 Z"
     style="fill:#e0e0e0;stroke:#ffffff;stroke-width:0;stroke-linecap:round;fill-opacity:1"
     id="path4"
     sodipodi:nodetypes="ccccccccccccc" />
</svg>
